#!OML:ASF I:\Actors\actors\Patient Classification 2\Patient 1\Session 1\actor1.ASF
:FULLY-SPECIFIED
:DEGREES
324
root -0.692225 18.6977 5.50148 1.76546 -4.84329 -1.52523
lowerback 5.15954 1.86001 0.439447
upperback 0.347952 2.50126 -0.0547253
thorax -2.511 1.24091 -0.483003
lowerneck -13.3185 0.77371 4.59485
upperneck 33.0514 -0.466924 0.857261
head 13.3449 0.485772 -0.536836
rclavicle 2.11209e-014 3.77691e-015
rhumerus -35.4227 21.0549 -99.4067
rradius 90.2809
rwrist 34.6458
rhand -18.1279 -53.7084
rfingers 7.12502
rthumb 8.14687 -83.5314
lclavicle 2.11209e-014 3.77691e-015
lhumerus -29.3149 -3.39742 81.0175
lradius 86.8919
lwrist -8.60227
lhand -9.13463 -45.916
lfingers 7.12502
lthumb 16.8168 -16.6243
rfemur 0 0 0
rtibia 0
rfoot 0 0
rtoes 0
lfemur -4.00064 -3.17838 -12.8686
ltibia 21.6713
lfoot -24.1175 17.6702
ltoes -54.8706
325
root -0.691972 18.6987 5.50286 1.8035 -4.94028 -1.54514
lowerback 5.0975 1.88163 0.501656
upperback 0.344731 2.53322 -0.0610364
thorax -2.47628 1.25632 -0.524261
lowerneck -13.2684 0.776903 4.59102
upperneck 33.2141 -0.507671 0.988127
head 13.4054 0.487996 -0.490605
rclavicle 3.86263e-014 -9.93923e-015
rhumerus -35.5393 21.5413 -100.024
rradius 90.062
rwrist 35.1303
rhand -18.0437 -53.7473
rfingers 7.12502
rthumb 8.22819 -83.567
lclavicle 3.86263e-014 -9.93923e-015
lhumerus -29.3986 -2.66654 80.7567
lradius 85.8831
lwrist -7.04992
lhand -9.98176 -46.7318
lfingers 7.12502
lthumb 16.0012 -17.3727
rfemur 0 0 0
rtibia 0
rfoot 0 0
rtoes 0
lfemur -4.00735 -3.0919 -12.841
ltibia 21.6688
lfoot -24.1448 17.6554
ltoes -54.823
326
root -0.684092 18.6994 5.48984 1.74628 -4.99266 -1.55771
lowerback 5.35962 1.91458 0.653099
upperback 0.330124 2.58689 -0.0849874
thorax -2.62964 1.28021 -0.647557
lowerneck -13.2267 0.701787 4.56574
upperneck 33.3486 -0.6366 1.05852
head 13.4528 0.440632 -0.477732
rclavicle 6.27414e-015 1.15295e-014
rhumerus -35.633 22.0161 -100.567
rradius 89.9283
rwrist 35.4542
rhand -19.4073 -53.2877
rfingers 7.12502
rthumb 6.91194 -83.1548
lclavicle 6.27414e-015 1.15295e-014
lhumerus -29.437 -2.20232 80.6625
lradius 84.8678
lwrist -6.49809
lhand -11.2642 -47.7466
lfingers 7.12502
lthumb 14.766 -18.2926
rfemur 0 0 0
rtibia 0
rfoot 0 0
rtoes 0
lfemur -3.98637 -3.19586 -12.8787
ltibia 21.669
lfoot -24.1703 17.7803
ltoes -54.7623
327
root -0.681912 18.6991 5.49493 1.77225 -5.04421 -1.55011
lowerback 5.2511 1.96811 0.670425
upperback 0.361361 2.65853 -0.078131
thorax -2.53522 1.31644 -0.650473
lowerneck -13.2454 0.592133 4.4775
upperneck 33.4823 -0.804882 1.13565
head 13.5123 0.369547 -0.457097
rclavicle -4.05148e-014 -1.19271e-014
rhumerus -35.7188 22.5318 -101.031
rradius 89.8125
rwrist 35.673
rhand -19.5894 -53.1026
rfingers 7.12502
rthumb 6.73623 -82.9755
lclavicle -4.05148e-014 -1.19271e-014
lhumerus -29.4441 -1.95773 80.7006
lradius 83.9703
lwrist -6.62865
lhand -12.0676 -48.1763
lfingers 7.12502
lthumb 13.9919 -18.6672
rfemur 0 0 0
rtibia 0
rfoot 0 0
rtoes 0
lfemur -3.98474 -3.16163 -12.9
ltibia 21.6696
lfoot -24.1911 17.8114
ltoes -54.8084
328
root -0.676821 18.6997 5.49253 1.81823 -5.08165 -1.52296
lowerback 5.20796 2.00683 0.647436
upperback 0.388538 2.70872 -0.0628652
thorax -2.48416 1.34215 -0.623201
lowerneck -13.2966 0.496329 4.34833
upperneck 33.5641 -0.948754 1.23234
head 13.5574 0.305594 -0.417958
rclavicle -1.44616e-014 1.17283e-014
rhumerus -35.777 23.1744 -101.489
rradius 89.6532
rwrist 35.7581
rhand -19.2732 -52.8592
rfingers 7.12502
rthumb 7.04144 -82.7221
lclavicle -1.44616e-014 1.17283e-014
lhumerus -29.4653 -1.97114 80.8355
lradius 83.2812
lwrist -6.77365
lhand -12.5071 -47.8955
lfingers 7.12502
lthumb 13.5683 -18.3576
rfemur 0 0 0
rtibia 0
rfoot 0 0
rtoes 0
lfemur -4.04572 -3.20791 -12.9617
ltibia 21.6827
lfoot -24.2335 17.9011
ltoes -54.8254
329
root -0.67269 18.7005 5.49006 1.80319 -5.09978 -1.51408
lowerback 5.19628 2.04133 0.601204
upperback 0.450233 2.75229 -0.0344451
thorax -2.4171 1.36499 -0.569346
lowerneck -13.3314 0.396799 4.22782
upperneck 33.6045 -1.09544 1.32066
head 13.581 0.239407 -0.384158
rclavicle -1.11816e-015 6.95746e-015
rhumerus -35.8357 23.888 -101.915
rradius 89.5588
rwrist 35.821
rhand -19.2224 -52.6906
rfingers 7.12502
rthumb 7.09043 -82.5519
lclavicle -1.11816e-015 6.95746e-015
lhumerus -29.5236 -2.33944 81.0922
lradius 82.8197
lwrist -6.54205
lhand -12.9852 -47.3283
lfingers 7.12502
lthumb 13.1074 -17.7603
rfemur 0 0 0
rtibia 0
rfoot 0 0
rtoes 0
lfemur -4.02124 -3.20426 -12.9836
ltibia 21.6586
lfoot -24.2712 17.8781
ltoes -54.7426
330
root -0.669186 18.7017 5.4872 1.79296 -5.04886 -1.5382
lowerback 5.2155 2.06737 0.59852
upperback 0.480959 2.78738 -0.00966136
thorax -2.39714 1.38277 -0.54493
lowerneck -13.3234 0.268072 4.06764
upperneck 33.6489 -1.28289 1.44331
head 13.5973 0.154971 -0.335933
rclavicle -3.12713e-014 1.13307e-014
rhumerus -35.8665 24.601 -102.283
rradius 89.5104
rwrist 35.9735
rhand -19.2238 -52.8608
rfingers 7.12502
rthumb 7.0891 -82.7221
lclavicle -3.12713e-014 1.13307e-014
lhumerus -29.6523 -2.98873 81.4593
lradius 82.5802
lwrist -6.11504
lhand -12.9921 -46.5205
lfingers 7.12502
lthumb 13.1008 -16.9519
rfemur 0 0 0
rtibia 0
rfoot 0 0
rtoes 0
lfemur -4.04948 -3.14324 -12.9507
ltibia 21.6893
lfoot -24.2246 17.7685
ltoes -54.7185
331
root -0.683678 18.7009 5.4925 1.61568 -4.67095 -1.58461
lowerback 5.2515 2.01166 0.383975
upperback 0.58209 2.70285 0.0850118
thorax -2.32878 1.34357 -0.321102
lowerneck -13.3452 0.10688 3.82121
upperneck 33.7174 -1.50922 1.60439
head 13.6315 0.0486677 -0.263218
rclavicle -8.97016e-015 7.65321e-015
rhumerus -35.7833 25.3397 -102.596
rradius 89.401
rwrist 36.1655
rhand -18.4577 -52.8648
rfingers 7.12502
rthumb 7.82859 -82.6999
lclavicle -8.97016e-015 7.65321e-015
lhumerus -29.7792 -3.75455 81.9335
lradius 82.4352
lwrist -5.97859
lhand -12.5819 -45.6583
lfingers 7.12502
lthumb 13.4962 -16.1156
rfemur 0 0 0
rtibia 0
rfoot 0 0
rtoes 0
lfemur -3.91705 -3.03789 -12.7817
ltibia 21.7179
lfoot -23.9582 17.3745
ltoes -54.8464
332
root -0.661864 18.7038 5.47912 1.79566 -4.84973 -1.63229
lowerback 5.2354 2.11068 0.643425
upperback 0.531149 2.84885 0.0437601
thorax -2.35641 1.4135 -0.519102
lowerneck -13.3948 -0.125164 3.53054
upperneck 33.744 -1.79819 1.67959
head 13.6522 -0.103027 -0.226783
rclavicle -1.50455e-014 -1.14301e-014
rhumerus -35.6437 26.0721 -102.867
rradius 89.3027
rwrist 36.3462
rhand -17.3005 -52.357
rfingers 7.12502
rthumb 8.94539 -82.1473
lclavicle -1.50455e-014 -1.14301e-014
lhumerus -29.8189 -4.52 82.5075
lradius 82.2834
lwrist -6.1296
lhand -12.2594 -44.9884
lfingers 7.12502
lthumb 13.807 -15.4667
rfemur 0 0 0
rtibia 0
rfoot 0 0
rtoes 0
lfemur -4.17025 -3.21596 -12.8555
ltibia 21.7636
lfoot -24.0773 17.7522
ltoes -54.7651
333
root -0.659872 18.7034 5.47666 1.81231 -4.75037 -1.6295
lowerback 5.23516 2.12306 0.592787
upperback 0.519403 2.86229 0.0363979
thorax -2.3703 1.42057 -0.499643
lowerneck -13.318 -0.408327 3.34545
upperneck 33.6959 -2.12802 1.5939
head 13.6091 -0.283726 -0.278732
rclavicle -2.44132e-014 -7.05686e-015
rhumerus -35.5249 26.7423 -103.131
rradius 89.2794
rwrist 36.4751
rhand -17.4685 -51.4143
rfingers 7.12502
rthumb 8.78329 -81.2115
lclavicle -2.44132e-014 -7.05686e-015
lhumerus -29.9118 -5.37709 83.1303
lradius 82.2423
lwrist -6.13159
lhand -12.1144 -44.3874
lfingers 7.12502
lthumb 13.9468 -14.8751
rfemur 0 0 0
rtibia 0
rfoot 0 0
rtoes 0
lfemur -4.24845 -3.246 -12.8587
ltibia 21.7959
lfoot -24.0057 17.771
ltoes -54.9284
334
root -0.657068 18.7031 5.47236 1.79024 -4.61184 -1.63012
lowerback 5.33542 2.12376 0.572834
upperback 0.479881 2.86247 0.0190483
thorax -2.46714 1.42012 -0.511546
lowerneck -13.1413 -0.637231 3.21864
upperneck 33.6947 -2.41083 1.5656
head 13.5668 -0.428569 -0.309733
rclavicle -6.8705e-015 2.98177e-015
rhumerus -35.3557 27.386 -103.322
rradius 89.2853
rwrist 36.5127
rhand -18.5896 -50.0641
rfingers 7.12502
rthumb 7.70128 -79.9038
lclavicle -6.8705e-015 2.98177e-015
lhumerus -30.103 -6.39242 83.8515
lradius 82.3828
lwrist -5.93396
lhand -12.191 -43.5778
lfingers 7.12502
lthumb 13.873 -14.0605
rfemur 0 0 0
rtibia 0
rfoot 0 0
rtoes 0
lfemur -4.27828 -3.31108 -12.857
ltibia 21.8008
lfoot -23.9639 17.7138
ltoes -54.9599
335
root -0.654483 18.7034 5.46773 1.77497 -4.4498 -1.6552
lowerback 5.39299 2.12356 0.548178
upperback 0.460912 2.8617 0.0378536
thorax -2.52105 1.41972 -0.481359
lowerneck -12.9963 -0.836781 2.94236
upperneck 33.7749 -2.66917 1.69964
head 13.5733 -0.557768 -0.246261
rclavicle -2.53326e-014 1.17283e-014
rhumerus -35.0776 28.0397 -103.343
rradius 89.3445
rwrist 36.444
rhand -19.6659 -48.4448
rfingers 7.12502
rthumb 6.66237 -78.32
lclavicle -2.53326e-014 1.17283e-014
lhumerus -30.2369 -7.39825 84.7283
lradius 82.5922
lwrist -5.77687
lhand -12.3443 -42.5599
lfingers 7.12502
lthumb 13.7252 -13.0326
rfemur 0 0 0
rtibia 0
rfoot 0 0
rtoes 0
lfemur -4.28865 -3.40152 -12.8215
ltibia 21.7524
lfoot -23.9013 17.6488
ltoes -54.9165
336
root -0.679953 18.7005 5.47949 1.56229 -4.12416 -1.66514
lowerback 5.34114 2.11558 0.0839725
upperback 0.563841 2.8262 0.165058
thorax -2.41539 1.40788 -0.0845781
lowerneck -12.9527 -1.07579 2.49788
upperneck 33.9466 -3.00024 1.98463
head 13.65 -0.716756 -0.104884
rclavicle -4.78326e-015 -3.77691e-015
rhumerus -34.7408 28.5469 -103.214
rradius 89.47
rwrist 36.4977
rhand -20.3009 -47.2315
rfingers 7.12502
rthumb 6.04934 -77.1252
lclavicle -4.78326e-015 -3.77691e-015
lhumerus -30.2992 -8.39804 85.7055
lradius 82.8187
lwrist -5.84941
lhand -12.4617 -41.4069
lfingers 7.12502
lthumb 13.612 -11.872
rfemur 0 0 0
rtibia 0
rfoot 0 0
rtoes 0
lfemur -4.03825 -3.21294 -12.6516
ltibia 21.7141
lfoot -23.6634 17.1805
ltoes -55.0633
